<?xml version="1.0" encoding="utf-8"?>
<!-- Generator: Adobe Illustrator 12.0.0, SVG Export Plug-In . SVG Version: 6.00 Build 51448)  -->
<!DOCTYPE svg PUBLIC "-//W3C//DTD SVG 1.1//EN" "http://www.w3.org/Graphics/SVG/1.1/DTD/svg11.dtd" [
	<!ENTITY ns_svg "http://www.w3.org/2000/svg">
	<!ENTITY ns_xlink "http://www.w3.org/1999/xlink">
]>
<svg  version="1.1" id="Layer_1" xmlns="&ns_svg;" xmlns:xlink="&ns_xlink;" width="205.865" height="40.685"
	 viewBox="0 0 205.865 40.685" overflow="visible" enable-background="new 0 0 205.865 40.685" xml:space="preserve">
<path fill="#666291" d="M98.322,38.677c0,0-24.544,2.231-24.544-16.958c0-6.396,4.611-8.331,6.62-8.331s5.727,1.636,4.76,6.322
	c0,0,6.471-1.413,6.471-9.074S85.009,0,77.273,0S61.505,4.537,61.505,16.884s14.206,20.603,20.454,21.941
	c0,0-16.649,1.471-34.809-18.371C31.903,3.793,20.449,9.446,20.449,9.446s-0.372,4.834,3.272,6.396c0,0-25.214-3.942-23.652,24.024
	c0,0,3.719-9.892,19.933-9.892c26.404,0,24.47,10.71,68.353,10.71C95.496,40.685,98.322,38.677,98.322,38.677z"/>
<path fill="#666291" d="M107.542,38.677c0,0,24.544,2.231,24.544-16.958c0-6.396-4.611-8.331-6.62-8.331s-5.727,1.636-4.76,6.322
	c0,0-6.471-1.413-6.471-9.074S120.856,0,128.591,0c7.735,0,15.768,4.537,15.768,16.884s-14.207,20.603-20.454,21.941
	c0,0,16.649,1.471,34.809-18.371c15.248-16.661,26.702-11.008,26.702-11.008s0.372,4.834-3.272,6.396
	c0,0,25.214-3.942,23.652,24.024c0,0-3.719-9.892-19.933-9.892c-26.404,0-24.47,10.71-68.353,10.71
	C110.369,40.685,107.542,38.677,107.542,38.677z"/>
</svg>
